<?xml version="1.0" encoding="utf-8"?>
<!-- Generator: Adobe Illustrator 19.2.1, SVG Export Plug-In . SVG Version: 6.00 Build 0)  -->
<!DOCTYPE svg PUBLIC "-//W3C//DTD SVG 1.1//EN" "http://www.w3.org/Graphics/SVG/1.1/DTD/svg11.dtd">
<svg version="1.1" id="Layer_1" xmlns="http://www.w3.org/2000/svg" xmlns:xlink="http://www.w3.org/1999/xlink" x="0px" y="0px"
	 viewBox="0 0 142.3 320" style="enable-background:new 0 0 142.3 320;" xml:space="preserve">
<style type="text/css">
	.st0{fill:#FFFFFF;stroke:#1D1D1B;stroke-width:1.27;stroke-miterlimit:10;}
	.st1{fill:none;stroke:#1D1D1B;stroke-width:2.27;stroke-miterlimit:10;}
	.st2{fill:none;stroke:#1D1D1B;stroke-width:6;stroke-miterlimit:10;}
	.st3{fill:#FFFFFF;stroke:#1D1D1B;stroke-width:2.27;stroke-miterlimit:10;}
	.st4{fill:none;stroke:#1D1D1B;stroke-width:1.27;stroke-miterlimit:10;}
	.st5{fill:#1D1D1B;}
	.st6{enable-background:new    ;}
	.st7{fill:#FFFFFF;}
</style>
<title>a7</title>
<rect x="0.6" y="59" class="st0" width="141" height="260.3"/>
<line class="st1" x1="141.6" y1="115.2" x2="0.6" y2="115.2"/>
<line class="st2" x1="141.6" y1="59.4" x2="0.6" y2="59.4"/>
<line class="st1" x1="141.6" y1="166.2" x2="0.6" y2="166.2"/>
<line class="st1" x1="141.6" y1="217.2" x2="0.6" y2="217.2"/>
<line class="st1" x1="141.6" y1="268.2" x2="0.6" y2="268.2"/>
<line class="st1" x1="141.6" y1="318.9" x2="0.6" y2="318.9"/>
<path class="st3" d="M0.6,319.2"/>
<path class="st3" d="M141.6,319.2"/>
<line class="st4" x1="47.3" y1="59.4" x2="47.3" y2="317.9"/>
<line class="st4" x1="96.1" y1="59.4" x2="96.1" y2="317.9"/>
<circle class="st5" cx="47.6" cy="88.2" r="16.5"/>
<g class="st6">
	<path class="st7" d="M46.4,85.4l-1.8,0.4L44,84l3-0.9h1.6v10.6h-2.3V85.4z"/>
</g>
<g class="st6">
	<path class="st5" d="M54.6,5.8h5.7l12,28.2h-6.4l-2.6-6.3H51.5L48.9,34h-6.3L54.6,5.8z M61.1,22.3l-3.7-9.1l-3.7,9.1H61.1z"/>
	<path class="st5" d="M89.2,11.3H76V6h20.2v4.6L83.6,34h-7L89.2,11.3z"/>
</g>
</svg>
