<?xml version="1.0" encoding="utf-8"?>
<!-- Generator: Adobe Illustrator 19.2.1, SVG Export Plug-In . SVG Version: 6.00 Build 0)  -->
<!DOCTYPE svg PUBLIC "-//W3C//DTD SVG 1.1//EN" "http://www.w3.org/Graphics/SVG/1.1/DTD/svg11.dtd">
<svg version="1.1" id="Layer_1" xmlns="http://www.w3.org/2000/svg" xmlns:xlink="http://www.w3.org/1999/xlink" x="0px" y="0px"
	 viewBox="0 0 158.1 320" style="enable-background:new 0 0 158.1 320;" xml:space="preserve">
<style type="text/css">
	.st0{fill:#FFFFFF;stroke:#1D1D1B;stroke-width:1.27;stroke-miterlimit:10;}
	.st1{fill:none;stroke:#1D1D1B;stroke-width:2.27;stroke-miterlimit:10;}
	.st2{fill:none;stroke:#1D1D1B;stroke-width:6;stroke-miterlimit:10;}
	.st3{fill:#FFFFFF;stroke:#1D1D1B;stroke-width:2.27;stroke-miterlimit:10;}
	.st4{fill:none;stroke:#1D1D1B;stroke-width:1.27;stroke-miterlimit:10;}
	.st5{fill:#1D1D1B;}
	.st6{enable-background:new    ;}
	.st7{fill:#FFFFFF;}
</style>
<title>am</title>
<rect x="16.5" y="59" class="st0" width="141" height="260.3"/>
<line class="st1" x1="157.5" y1="115.2" x2="16.5" y2="115.2"/>
<line class="st2" x1="157.5" y1="59.4" x2="16.5" y2="59.4"/>
<line class="st1" x1="157.5" y1="166.2" x2="16.5" y2="166.2"/>
<line class="st1" x1="157.5" y1="217.2" x2="16.5" y2="217.2"/>
<line class="st1" x1="157.5" y1="268.2" x2="16.5" y2="268.2"/>
<line class="st1" x1="157.5" y1="318.9" x2="16.5" y2="318.9"/>
<path class="st3" d="M16.5,319.2"/>
<path class="st3" d="M157.5,319.2"/>
<line class="st4" x1="63.1" y1="59.4" x2="63.1" y2="317.9"/>
<line class="st4" x1="112" y1="59.4" x2="112" y2="317.9"/>
<circle class="st5" cx="16.5" cy="139.2" r="16.5"/>
<g class="st6">
	<path class="st7" d="M11.9,142.5l3.5-2.9c1.3-1.1,1.8-1.7,1.8-2.5c0-0.9-0.6-1.4-1.4-1.4c-0.8,0-1.4,0.5-2.1,1.4l-1.6-1.3
		c1-1.4,2-2.2,3.9-2.2c2.2,0,3.6,1.3,3.6,3.2v0c0,1.8-0.9,2.6-2.8,4.1l-1.7,1.3h4.6v2h-7.8V142.5z"/>
</g>
<g class="st6">
	<path class="st5" d="M59.5,5.8h5.7l12,28.2h-6.4l-2.6-6.3H56.3L53.8,34h-6.3L59.5,5.8z M66,22.3l-3.7-9.1l-3.7,9.1H66z"/>
	<path class="st5" d="M80.8,12.6h6.1v3c1.4-1.8,3.2-3.4,6.3-3.4c2.8,0,4.9,1.2,6,3.4c1.9-2.2,4.1-3.4,7-3.4c4.5,0,7.2,2.7,7.2,7.9
		v14h-6.1V22c0-2.9-1.3-4.4-3.6-4.4c-2.3,0-3.7,1.5-3.7,4.4v12h-6.1V22c0-2.9-1.3-4.4-3.6-4.4s-3.7,1.5-3.7,4.4v12h-6.1V12.6z"/>
</g>
</svg>
