<?xml version="1.0" encoding="utf-8"?>
<!-- Generator: Adobe Illustrator 19.2.1, SVG Export Plug-In . SVG Version: 6.00 Build 0)  -->
<!DOCTYPE svg PUBLIC "-//W3C//DTD SVG 1.1//EN" "http://www.w3.org/Graphics/SVG/1.1/DTD/svg11.dtd">
<svg version="1.1" id="Layer_1" xmlns="http://www.w3.org/2000/svg" xmlns:xlink="http://www.w3.org/1999/xlink" x="0px" y="0px"
	 viewBox="0 0 142.3 320" style="enable-background:new 0 0 142.3 320;" xml:space="preserve">
<style type="text/css">
	.st0{fill:#FFFFFF;stroke:#1D1D1B;stroke-width:1.27;stroke-miterlimit:10;}
	.st1{fill:none;stroke:#1D1D1B;stroke-width:2.27;stroke-miterlimit:10;}
	.st2{fill:none;stroke:#1D1D1B;stroke-width:6;stroke-miterlimit:10;}
	.st3{fill:#FFFFFF;stroke:#1D1D1B;stroke-width:2.27;stroke-miterlimit:10;}
	.st4{fill:none;stroke:#1D1D1B;stroke-width:1.27;stroke-miterlimit:10;}
	.st5{enable-background:new    ;}
	.st6{fill:#1D1D1B;}
</style>
<title>am7</title>
<rect x="0.6" y="59" class="st0" width="141" height="260.3"/>
<line class="st1" x1="141.6" y1="115.2" x2="0.6" y2="115.2"/>
<line class="st2" x1="141.6" y1="59.4" x2="0.6" y2="59.4"/>
<line class="st1" x1="141.6" y1="166.2" x2="0.6" y2="166.2"/>
<line class="st1" x1="141.6" y1="217.2" x2="0.6" y2="217.2"/>
<line class="st1" x1="141.6" y1="268.2" x2="0.6" y2="268.2"/>
<line class="st1" x1="141.6" y1="318.9" x2="0.6" y2="318.9"/>
<path class="st3" d="M0.6,319.2"/>
<path class="st3" d="M141.6,319.2"/>
<line class="st4" x1="47.3" y1="59.4" x2="47.3" y2="317.9"/>
<line class="st4" x1="96.1" y1="59.4" x2="96.1" y2="317.9"/>
<g class="st5">
	<path class="st6" d="M37.6,5.8h5.7l12,28.2h-6.4l-2.6-6.3H34.5L31.9,34h-6.3L37.6,5.8z M44.1,22.3l-3.7-9.1l-3.7,9.1H44.1z"/>
	<path class="st6" d="M59,12.6h6.1v3c1.4-1.8,3.2-3.4,6.3-3.4c2.8,0,4.9,1.2,6,3.4c1.9-2.2,4.1-3.4,7-3.4c4.5,0,7.2,2.7,7.2,7.9v14
		h-6.1V22c0-2.9-1.3-4.4-3.6-4.4c-2.3,0-3.7,1.5-3.7,4.4v12h-6.1V22c0-2.9-1.3-4.4-3.6-4.4c-2.3,0-3.7,1.5-3.7,4.4v12H59V12.6z"/>
	<path class="st6" d="M110.2,11.3H97V6h20.2v4.6L104.6,34h-7L110.2,11.3z"/>
</g>
</svg>
