<?xml version="1.0" encoding="utf-8"?>
<!-- Generator: Adobe Illustrator 19.2.1, SVG Export Plug-In . SVG Version: 6.00 Build 0)  -->
<!DOCTYPE svg PUBLIC "-//W3C//DTD SVG 1.1//EN" "http://www.w3.org/Graphics/SVG/1.1/DTD/svg11.dtd">
<svg version="1.1" id="Layer_1" xmlns="http://www.w3.org/2000/svg" xmlns:xlink="http://www.w3.org/1999/xlink" x="0px" y="0px"
	 viewBox="0 0 173.9 320" style="enable-background:new 0 0 173.9 320;" xml:space="preserve">
<style type="text/css">
	.st0{fill:#FFFFFF;stroke:#1D1D1B;stroke-width:1.27;stroke-miterlimit:10;}
	.st1{fill:none;stroke:#1D1D1B;stroke-width:2.27;stroke-miterlimit:10;}
	.st2{fill:none;stroke:#1D1D1B;stroke-width:6;stroke-miterlimit:10;}
	.st3{fill:#FFFFFF;stroke:#1D1D1B;stroke-width:2.27;stroke-miterlimit:10;}
	.st4{fill:none;stroke:#1D1D1B;stroke-width:1.27;stroke-miterlimit:10;}
	.st5{fill:#1D1D1B;}
	.st6{enable-background:new    ;}
	.st7{fill:#FFFFFF;}
</style>
<title>b</title>
<rect x="16.5" y="59" class="st0" width="141" height="260.3"/>
<line class="st1" x1="157.5" y1="115.2" x2="16.5" y2="115.2"/>
<line class="st2" x1="157.5" y1="59.4" x2="16.5" y2="59.4"/>
<line class="st1" x1="157.5" y1="166.2" x2="16.5" y2="166.2"/>
<line class="st1" x1="157.5" y1="217.2" x2="16.5" y2="217.2"/>
<line class="st1" x1="157.5" y1="268.2" x2="16.5" y2="268.2"/>
<line class="st1" x1="157.5" y1="318.9" x2="16.5" y2="318.9"/>
<path class="st3" d="M16.5,319.2"/>
<path class="st3" d="M157.5,319.2"/>
<line class="st4" x1="63.1" y1="59.4" x2="63.1" y2="317.9"/>
<line class="st4" x1="112" y1="59.4" x2="112" y2="317.9"/>
<circle class="st5" cx="157.5" cy="141" r="16.5"/>
<g class="st6">
	<path class="st7" d="M156.2,137.3l-1.8,0.4l-0.5-1.9l3-0.9h1.6v10.6h-2.3V137.3z"/>
</g>
<circle class="st5" cx="112.5" cy="141" r="16.5"/>
<g class="st6">
	<path class="st7" d="M111.2,137.3l-1.8,0.4l-0.5-1.9l3-0.9h1.6v10.6h-2.3V137.3z"/>
</g>
<circle class="st5" cx="63.5" cy="141" r="16.5"/>
<g class="st6">
	<path class="st7" d="M62.2,137.3l-1.8,0.4l-0.5-1.9l3-0.9h1.6v10.6h-2.3V137.3z"/>
</g>
<circle class="st5" cx="63.5" cy="192.1" r="16.5"/>
<g class="st6">
	<path class="st7" d="M59.3,194.7l3.5-2.9c1.3-1.1,1.8-1.7,1.8-2.5c0-0.9-0.6-1.4-1.4-1.4c-0.8,0-1.4,0.5-2.1,1.4l-1.6-1.3
		c1-1.4,2-2.2,3.9-2.2c2.2,0,3.6,1.3,3.6,3.2v0c0,1.8-0.9,2.6-2.8,4.1l-1.7,1.3H67v2h-7.8V194.7z"/>
</g>
<circle class="st5" cx="16.5" cy="242.1" r="16.5"/>
<g class="st6">
	<path class="st7" d="M12.1,245.9l1.6-1.5c0.7,0.8,1.5,1.3,2.5,1.3c0.9,0,1.5-0.5,1.5-1.3v0c0-0.9-0.8-1.3-2.1-1.3h-1l-0.4-1.5
		l2.5-2.5h-4.1v-2h7.1v1.7l-2.7,2.5c1.4,0.2,2.8,1,2.8,2.9v0c0,2-1.4,3.4-3.8,3.4C14.3,247.7,13,247,12.1,245.9z"/>
</g>
<circle class="st5" cx="16.5" cy="141" r="16.5"/>
<g class="st6">
	<path class="st7" d="M15.2,137.3l-1.8,0.4l-0.5-1.9l3-0.9h1.6v10.6h-2.3V137.3z"/>
</g>
<g class="st6">
	<path class="st5" d="M73.9,6h13c3.2,0,5.7,0.9,7.3,2.5c1.3,1.3,1.9,2.8,1.9,4.8v0.1c0,3.2-1.7,4.9-3.7,6c3.2,1.2,5.2,3.1,5.2,6.9
		v0.1c0,5.1-4.2,7.7-10.5,7.7H73.9V6z M85.6,17.3c2.7,0,4.4-0.9,4.4-3v-0.1c0-1.8-1.4-2.9-4-2.9h-6.1v5.9H85.6z M87.2,28.6
		c2.7,0,4.4-1,4.4-3v-0.1c0-1.9-1.4-3-4.6-3h-7.1v6.2H87.2z"/>
</g>
</svg>
