<?xml version="1.0" encoding="utf-8"?>
<!-- Generator: Adobe Illustrator 19.2.1, SVG Export Plug-In . SVG Version: 6.00 Build 0)  -->
<!DOCTYPE svg PUBLIC "-//W3C//DTD SVG 1.1//EN" "http://www.w3.org/Graphics/SVG/1.1/DTD/svg11.dtd">
<svg version="1.1" id="Layer_1" xmlns="http://www.w3.org/2000/svg" xmlns:xlink="http://www.w3.org/1999/xlink" x="0px" y="0px"
	 viewBox="0 0 142.3 320" style="enable-background:new 0 0 142.3 320;" xml:space="preserve">
<style type="text/css">
	.st0{fill:#FFFFFF;stroke:#1D1D1B;stroke-width:1.27;stroke-miterlimit:10;}
	.st1{fill:none;stroke:#1D1D1B;stroke-width:2.27;stroke-miterlimit:10;}
	.st2{fill:none;stroke:#1D1D1B;stroke-width:6;stroke-miterlimit:10;}
	.st3{fill:#FFFFFF;stroke:#1D1D1B;stroke-width:2.27;stroke-miterlimit:10;}
	.st4{fill:none;stroke:#1D1D1B;stroke-width:1.27;stroke-miterlimit:10;}
	.st5{enable-background:new    ;}
	.st6{fill:#1D1D1B;}
</style>
<title>c6</title>
<rect x="0.6" y="59" class="st0" width="141" height="260.3"/>
<line class="st1" x1="141.6" y1="115.2" x2="0.6" y2="115.2"/>
<line class="st2" x1="141.6" y1="59.4" x2="0.6" y2="59.4"/>
<line class="st1" x1="141.6" y1="166.2" x2="0.6" y2="166.2"/>
<line class="st1" x1="141.6" y1="217.2" x2="0.6" y2="217.2"/>
<line class="st1" x1="141.6" y1="268.2" x2="0.6" y2="268.2"/>
<line class="st1" x1="141.6" y1="318.9" x2="0.6" y2="318.9"/>
<path class="st3" d="M0.6,319.2"/>
<path class="st3" d="M141.6,319.2"/>
<line class="st4" x1="47.3" y1="59.4" x2="47.3" y2="317.9"/>
<line class="st4" x1="96.1" y1="59.4" x2="96.1" y2="317.9"/>
<g class="st5">
	<path class="st6" d="M43.8,20.1L43.8,20.1c0-8,6-14.6,14.6-14.6c5.3,0,8.4,1.8,11,4.3l-3.9,4.5c-2.2-2-4.4-3.2-7.2-3.2
		c-4.7,0-8.1,3.9-8.1,8.7V20c0,4.8,3.3,8.8,8.1,8.8c3.2,0,5.2-1.3,7.4-3.3l3.9,4c-2.9,3.1-6.1,5-11.5,5
		C49.9,34.5,43.8,28.1,43.8,20.1z"/>
	<path class="st6" d="M76.7,31.5c-2-2-3.3-5-3.3-10.6v-0.1c0-8.6,3.9-15.3,12.3-15.3c3.8,0,6.3,1.1,8.8,3.1l-3.2,4.8
		c-1.8-1.4-3.3-2.2-5.7-2.2c-3.5,0-5.2,2.8-5.6,6.5c1.4-0.9,3-1.8,5.8-1.8c5.6,0,9.8,3.1,9.8,8.9v0.1c0,5.7-4.6,9.7-10.7,9.7
		C81.1,34.5,78.6,33.4,76.7,31.5z M89.3,25.1L89.3,25.1c0-2.4-1.8-4.2-4.9-4.2c-3,0-4.8,1.7-4.8,4V25c0,2.4,1.8,4.2,4.9,4.2
		C87.6,29.2,89.3,27.5,89.3,25.1z"/>
</g>
</svg>
