<?xml version="1.0" encoding="utf-8"?>
<!-- Generator: Adobe Illustrator 19.2.1, SVG Export Plug-In . SVG Version: 6.00 Build 0)  -->
<!DOCTYPE svg PUBLIC "-//W3C//DTD SVG 1.1//EN" "http://www.w3.org/Graphics/SVG/1.1/DTD/svg11.dtd">
<svg version="1.1" id="Layer_1" xmlns="http://www.w3.org/2000/svg" xmlns:xlink="http://www.w3.org/1999/xlink" x="0px" y="0px"
	 viewBox="0 0 158.1 320" style="enable-background:new 0 0 158.1 320;" xml:space="preserve">
<style type="text/css">
	.st0{fill:#FFFFFF;stroke:#1D1D1B;stroke-width:1.27;stroke-miterlimit:10;}
	.st1{fill:none;stroke:#1D1D1B;stroke-width:2.27;stroke-miterlimit:10;}
	.st2{fill:none;stroke:#1D1D1B;stroke-width:6;stroke-miterlimit:10;}
	.st3{fill:#FFFFFF;stroke:#1D1D1B;stroke-width:2.27;stroke-miterlimit:10;}
	.st4{fill:none;stroke:#1D1D1B;stroke-width:1.27;stroke-miterlimit:10;}
	.st5{fill:#1D1D1B;}
	.st6{enable-background:new    ;}
	.st7{fill:#FFFFFF;}
</style>
<title>c7</title>
<rect x="0.6" y="59" class="st0" width="141" height="260.3"/>
<line class="st1" x1="141.6" y1="115.2" x2="0.6" y2="115.2"/>
<line class="st2" x1="141.6" y1="59.4" x2="0.6" y2="59.4"/>
<line class="st1" x1="141.6" y1="166.2" x2="0.6" y2="166.2"/>
<line class="st1" x1="141.6" y1="217.2" x2="0.6" y2="217.2"/>
<line class="st1" x1="141.6" y1="268.2" x2="0.6" y2="268.2"/>
<line class="st1" x1="141.6" y1="318.9" x2="0.6" y2="318.9"/>
<path class="st3" d="M0.6,319.2"/>
<path class="st3" d="M141.6,319.2"/>
<line class="st4" x1="47.3" y1="59.4" x2="47.3" y2="317.9"/>
<line class="st4" x1="96.1" y1="59.4" x2="96.1" y2="317.9"/>
<circle class="st5" cx="141.6" cy="86.2" r="16.5"/>
<g class="st6">
	<path class="st7" d="M140.4,82.4l-1.8,0.4L138,81l3-0.9h1.6v10.6h-2.3V82.4z"/>
</g>
<g class="st6">
	<path class="st5" d="M46.8,20.1L46.8,20.1c0-8,6-14.6,14.6-14.6c5.3,0,8.4,1.8,11,4.3l-3.9,4.5c-2.2-2-4.4-3.2-7.2-3.2
		c-4.7,0-8.1,3.9-8.1,8.7V20c0,4.8,3.3,8.8,8.1,8.8c3.2,0,5.2-1.3,7.4-3.3l3.9,4c-2.9,3.1-6.1,5-11.5,5
		C52.9,34.5,46.8,28.1,46.8,20.1z"/>
	<path class="st5" d="M90.1,11.3H76.9V6h20.2v4.6L84.5,34h-7L90.1,11.3z"/>
</g>
</svg>
