<?xml version="1.0" encoding="utf-8"?>
<!-- Generator: Adobe Illustrator 19.2.1, SVG Export Plug-In . SVG Version: 6.00 Build 0)  -->
<!DOCTYPE svg PUBLIC "-//W3C//DTD SVG 1.1//EN" "http://www.w3.org/Graphics/SVG/1.1/DTD/svg11.dtd">
<svg version="1.1" id="Layer_1" xmlns="http://www.w3.org/2000/svg" xmlns:xlink="http://www.w3.org/1999/xlink" x="0px" y="0px"
	 viewBox="0 0 158.1 320" style="enable-background:new 0 0 158.1 320;" xml:space="preserve">
<style type="text/css">
	.st0{fill:#FFFFFF;stroke:#1D1D1B;stroke-width:1.27;stroke-miterlimit:10;}
	.st1{fill:none;stroke:#1D1D1B;stroke-width:2.27;stroke-miterlimit:10;}
	.st2{fill:none;stroke:#1D1D1B;stroke-width:6;stroke-miterlimit:10;}
	.st3{fill:#FFFFFF;stroke:#1D1D1B;stroke-width:2.27;stroke-miterlimit:10;}
	.st4{fill:none;stroke:#1D1D1B;stroke-width:1.27;stroke-miterlimit:10;}
	.st5{fill:#1D1D1B;}
	.st6{enable-background:new    ;}
	.st7{fill:#FFFFFF;}
</style>
<title>cm</title>
<rect x="0.6" y="59" class="st0" width="141" height="260.3"/>
<line class="st1" x1="141.6" y1="115.2" x2="0.6" y2="115.2"/>
<line class="st2" x1="141.6" y1="59.4" x2="0.6" y2="59.4"/>
<line class="st1" x1="141.6" y1="166.2" x2="0.6" y2="166.2"/>
<line class="st1" x1="141.6" y1="217.2" x2="0.6" y2="217.2"/>
<line class="st1" x1="141.6" y1="268.2" x2="0.6" y2="268.2"/>
<line class="st1" x1="141.6" y1="318.9" x2="0.6" y2="318.9"/>
<path class="st3" d="M0.6,319.2"/>
<path class="st3" d="M141.6,319.2"/>
<line class="st4" x1="47.3" y1="59.4" x2="47.3" y2="317.9"/>
<line class="st4" x1="96.1" y1="59.4" x2="96.1" y2="317.9"/>
<circle class="st5" cx="141.6" cy="191.2" r="16.5"/>
<g class="st6">
	<path class="st7" d="M140.4,187.4l-1.8,0.4L138,186l3-0.9h1.6v10.6h-2.3V187.4z"/>
</g>
<circle class="st5" cx="96.6" cy="191.2" r="16.5"/>
<g class="st6">
	<path class="st7" d="M95.4,187.4l-1.8,0.4L93,186l3-0.9h1.6v10.6h-2.3V187.4z"/>
</g>
<circle class="st5" cx="47.6" cy="191.2" r="16.5"/>
<g class="st6">
	<path class="st7" d="M46.4,187.4l-1.8,0.4L44,186l3-0.9h1.6v10.6h-2.3V187.4z"/>
</g>
<g class="st6">
	<path class="st5" d="M36.8,20.1L36.8,20.1c0-8,6-14.6,14.6-14.6c5.3,0,8.4,1.8,11,4.3l-3.9,4.5c-2.2-2-4.4-3.2-7.2-3.2
		c-4.7,0-8.1,3.9-8.1,8.7V20c0,4.8,3.3,8.8,8.1,8.8c3.2,0,5.2-1.3,7.4-3.3l3.9,4c-2.9,3.1-6.1,5-11.5,5
		C42.9,34.5,36.8,28.1,36.8,20.1z"/>
	<path class="st5" d="M66.9,12.6H73v3c1.4-1.8,3.2-3.4,6.3-3.4c2.8,0,4.9,1.2,6,3.4c1.9-2.2,4.1-3.4,7-3.4c4.5,0,7.2,2.7,7.2,7.9v14
		h-6.1V22c0-2.9-1.3-4.4-3.6-4.4c-2.3,0-3.7,1.5-3.7,4.4v12h-6.1V22c0-2.9-1.3-4.4-3.6-4.4c-2.3,0-3.7,1.5-3.7,4.4v12h-6.1V12.6z"/>
</g>
</svg>
