<?xml version="1.0" encoding="utf-8"?>
<!-- Generator: Adobe Illustrator 19.2.1, SVG Export Plug-In . SVG Version: 6.00 Build 0)  -->
<!DOCTYPE svg PUBLIC "-//W3C//DTD SVG 1.1//EN" "http://www.w3.org/Graphics/SVG/1.1/DTD/svg11.dtd">
<svg version="1.1" id="Layer_1" xmlns="http://www.w3.org/2000/svg" xmlns:xlink="http://www.w3.org/1999/xlink" x="0px" y="0px"
	 viewBox="0 0 172 320" style="enable-background:new 0 0 172 320;" xml:space="preserve">
<style type="text/css">
	.st0{fill:#FFFFFF;stroke:#1D1D1B;stroke-width:1.27;stroke-miterlimit:10;}
	.st1{fill:none;stroke:#1D1D1B;stroke-width:2.27;stroke-miterlimit:10;}
	.st2{fill:none;stroke:#1D1D1B;stroke-width:1.27;stroke-miterlimit:10;}
	.st3{fill:none;stroke:#1D1D1B;stroke-width:6;stroke-miterlimit:10;}
	.st4{fill:#FFFFFF;stroke:#1D1D1B;stroke-width:2.27;stroke-miterlimit:10;}
	.st5{fill:#1D1D1B;}
	.st6{enable-background:new    ;}
	.st7{fill:#FFFFFF;}
</style>
<title>e7</title>
<rect x="14.5" y="59" class="st0" width="141" height="260.3"/>
<line class="st1" x1="155.5" y1="115.2" x2="14.5" y2="115.2"/>
<line class="st1" x1="155.5" y1="166.2" x2="14.5" y2="166.2"/>
<line class="st2" x1="61.1" y1="59.4" x2="61.1" y2="317.9"/>
<line class="st2" x1="110" y1="59.4" x2="110" y2="317.9"/>
<line class="st3" x1="155.5" y1="59.4" x2="14.5" y2="59.4"/>
<line class="st1" x1="155.5" y1="217.2" x2="14.5" y2="217.2"/>
<line class="st1" x1="155.5" y1="268.2" x2="14.5" y2="268.2"/>
<line class="st1" x1="155.5" y1="318.9" x2="14.5" y2="318.9"/>
<path class="st4" d="M14.5,319.2"/>
<path class="st4" d="M155.5,319.2"/>
<circle class="st5" cx="60.5" cy="140.8" r="16.5"/>
<circle class="st5" cx="16.5" cy="86.2" r="16.5"/>
<circle class="st5" cx="155.5" cy="140.2" r="16.5"/>
<g class="st6">
	<path class="st7" d="M56.7,143.9l3.5-2.9c1.3-1.1,1.8-1.7,1.8-2.5c0-0.9-0.6-1.4-1.4-1.4c-0.8,0-1.4,0.5-2.1,1.4l-1.6-1.3
		c1-1.4,2-2.2,3.9-2.2c2.2,0,3.6,1.3,3.6,3.2v0c0,1.8-0.9,2.6-2.8,4.1l-1.7,1.3h4.6v2h-7.8V143.9z"/>
</g>
<g class="st6">
	<path class="st7" d="M151.7,143.7l1.6-1.5c0.7,0.8,1.5,1.3,2.5,1.3c0.9,0,1.5-0.5,1.5-1.3v0c0-0.9-0.8-1.3-2.1-1.3h-1l-0.4-1.5
		l2.5-2.5h-4.1v-2h7.1v1.7l-2.7,2.5c1.4,0.2,2.8,1,2.8,2.9v0c0,2-1.4,3.4-3.8,3.4C153.9,145.5,152.6,144.7,151.7,143.7z"/>
</g>
<g class="st6">
	<path class="st7" d="M15.1,82.4l-1.8,0.4L12.8,81l3-0.9h1.6v10.6h-2.3V82.4z"/>
</g>
<g class="st6">
	<path class="st5" d="M62.9,6H84v5.5H69v5.7h13.2v5.5H69v5.9h15.2V34H62.9V6z"/>
	<path class="st5" d="M102.2,11.3H89.1V6h20.2v4.6L96.7,34h-7L102.2,11.3z"/>
</g>
</svg>
