<svg id="Layer_1" data-name="Layer 1" xmlns="http://www.w3.org/2000/svg" viewBox="0 0 157.96 315.23"><defs><style>.cls-1,.cls-2,.cls-3,.cls-4,.cls-6{fill:#fff;}.cls-1,.cls-2,.cls-3,.cls-4{stroke:#1d1d1b;stroke-miterlimit:10;}.cls-1{stroke-width:1.27px;}.cls-2{stroke-width:2.27px;}.cls-3{stroke-width:1.27px;}.cls-4{stroke-width:6px;}.cls-5{fill:#1d1d1b;}</style></defs><title>edim</title><rect class="cls-1" x="-2197.31" y="2418.99" width="260.29" height="140.99" transform="translate(2560.61 2251.46) rotate(90)"/><line class="cls-2" x1="141.62" y1="110.37" x2="0.63" y2="110.37"/><line class="cls-2" x1="141.62" y1="161.37" x2="0.63" y2="161.37"/><line class="cls-3" x1="47.27" y1="54.56" x2="47.27" y2="313.1"/><line class="cls-3" x1="96.13" y1="54.56" x2="96.13" y2="313.1"/><line class="cls-4" x1="141.62" y1="54.56" x2="0.63" y2="54.56"/><line class="cls-2" x1="141.62" y1="212.37" x2="0.63" y2="212.37"/><line class="cls-2" x1="141.62" y1="263.37" x2="0.63" y2="263.37"/><line class="cls-2" x1="141.62" y1="314.1" x2="0.63" y2="314.1"/><path class="cls-2" d="M-2137.65,2619.56" transform="translate(2138.29 -2305.18)"/><path class="cls-2" d="M-1996.66,2619.56" transform="translate(2138.29 -2305.18)"/><circle class="cls-5" cx="141.49" cy="83.42" r="16.47"/><circle class="cls-5" cx="47.64" cy="83.42" r="16.47"/><path class="cls-6" d="M-2092.33,2385.46l-1.83.45-0.48-1.89,3-.9h1.58v10.58h-2.28v-8.24Z" transform="translate(2138.29 -2305.18)"/><path class="cls-6" d="M-2001.06,2391.28l3.49-2.86c1.31-1.08,1.82-1.65,1.82-2.52a1.29,1.29,0,0,0-1.41-1.36c-0.81,0-1.37.45-2.14,1.41l-1.62-1.3a4.38,4.38,0,0,1,3.92-2.17c2.17,0,3.61,1.28,3.61,3.24v0c0,1.75-.9,2.63-2.76,4.07l-1.71,1.32h4.58v2h-7.77v-1.83Z" transform="translate(2138.29 -2305.18)"/><path class="cls-5" d="M-2114.24,2306.38h21.12v5.48h-15v5.68h13.2V2323h-13.2v5.88h15.2v5.48h-21.32v-28Z" transform="translate(2138.29 -2305.18)"/><path class="cls-5" d="M-2089.44,2323.7v-0.08c0-7.16,4.68-11.08,9.76-11.08a8.23,8.23,0,0,1,6.68,3.2v-10.56h6.08v29.2H-2073v-3.08a7.87,7.87,0,0,1-6.68,3.48C-2084.68,2334.78-2089.44,2330.86-2089.44,2323.7Zm16.52,0v-0.08c0-3.56-2.36-5.92-5.2-5.92s-5.24,2.32-5.24,5.92v0.08c0,3.56,2.4,5.92,5.24,5.92S-2072.92,2327.26-2072.92,2323.7Z" transform="translate(2138.29 -2305.18)"/><path class="cls-5" d="M-2061.36,2305.18h6.4v5.4h-6.4v-5.4Zm0.16,7.76h6.08v21.44h-6.08v-21.44Z" transform="translate(2138.29 -2305.18)"/><path class="cls-5" d="M-2049.4,2312.94h6.08v3a7.66,7.66,0,0,1,6.32-3.44,6.41,6.41,0,0,1,6,3.4,8.83,8.83,0,0,1,7-3.4c4.52,0,7.24,2.72,7.24,7.88v14h-6.08v-12c0-2.88-1.28-4.36-3.56-4.36s-3.68,1.48-3.68,4.36v12h-6.08v-12c0-2.88-1.28-4.36-3.56-4.36s-3.68,1.48-3.68,4.36v12h-6.08v-21.44Z" transform="translate(2138.29 -2305.18)"/></svg>