<?xml version="1.0" encoding="utf-8"?>
<!-- Generator: Adobe Illustrator 19.2.1, SVG Export Plug-In . SVG Version: 6.00 Build 0)  -->
<!DOCTYPE svg PUBLIC "-//W3C//DTD SVG 1.1//EN" "http://www.w3.org/Graphics/SVG/1.1/DTD/svg11.dtd">
<svg version="1.1" id="Layer_1" xmlns="http://www.w3.org/2000/svg" xmlns:xlink="http://www.w3.org/1999/xlink" x="0px" y="0px"
	 viewBox="0 0 159.1 320" style="enable-background:new 0 0 159.1 320;" xml:space="preserve">
<style type="text/css">
	.st0{fill:#FFFFFF;stroke:#1D1D1B;stroke-width:1.27;stroke-miterlimit:10;}
	.st1{fill:none;stroke:#1D1D1B;stroke-width:2.27;stroke-miterlimit:10;}
	.st2{fill:none;stroke:#1D1D1B;stroke-width:1.27;stroke-miterlimit:10;}
	.st3{fill:none;stroke:#1D1D1B;stroke-width:6;stroke-miterlimit:10;}
	.st4{fill:#FFFFFF;stroke:#1D1D1B;stroke-width:2.27;stroke-miterlimit:10;}
	.st5{fill:#1D1D1B;}
	.st6{enable-background:new    ;}
	.st7{fill:#FFFFFF;}
</style>
<title>em</title>
<rect x="0.6" y="59" class="st0" width="141" height="260.3"/>
<line class="st1" x1="141.6" y1="115.2" x2="0.6" y2="115.2"/>
<line class="st1" x1="141.6" y1="166.2" x2="0.6" y2="166.2"/>
<line class="st2" x1="47.3" y1="59.4" x2="47.3" y2="317.9"/>
<line class="st2" x1="96.1" y1="59.4" x2="96.1" y2="317.9"/>
<line class="st3" x1="141.6" y1="59.4" x2="0.6" y2="59.4"/>
<line class="st1" x1="141.6" y1="217.2" x2="0.6" y2="217.2"/>
<line class="st1" x1="141.6" y1="268.2" x2="0.6" y2="268.2"/>
<line class="st1" x1="141.6" y1="318.9" x2="0.6" y2="318.9"/>
<path class="st4" d="M0.6,319.2"/>
<path class="st4" d="M141.6,319.2"/>
<circle class="st5" cx="94.7" cy="190.8" r="16.5"/>
<circle class="st5" cx="142.6" cy="140.2" r="16.5"/>
<circle class="st5" cx="47.6" cy="241.2" r="16.5"/>
<g class="st6">
	<path class="st7" d="M90.8,193.9l3.5-2.9c1.3-1.1,1.8-1.7,1.8-2.5c0-0.9-0.6-1.4-1.4-1.4c-0.8,0-1.4,0.5-2.1,1.4l-1.6-1.3
		c1-1.4,2-2.2,3.9-2.2c2.2,0,3.6,1.3,3.6,3.2v0c0,1.8-0.9,2.6-2.8,4.1l-1.7,1.3h4.6v2h-7.8V193.9z"/>
</g>
<g class="st6">
	<path class="st7" d="M43.9,244.7l1.6-1.5c0.7,0.8,1.5,1.3,2.5,1.3c0.9,0,1.5-0.5,1.5-1.3v0c0-0.9-0.8-1.3-2.1-1.3h-1l-0.4-1.5
		l2.5-2.5h-4.1v-2h7.1v1.7l-2.7,2.5c1.4,0.2,2.8,1,2.8,2.9v0c0,2-1.4,3.4-3.8,3.4C46.1,246.5,44.8,245.8,43.9,244.7z"/>
</g>
<g class="st6">
	<path class="st7" d="M141.3,136.4l-1.8,0.4L139,135l3-0.9h1.6v10.6h-2.3V136.4z"/>
</g>
<g class="st6">
	<path class="st5" d="M38,6h21.1v5.5h-15v5.7h13.2v5.5H44.2v5.9h15.2V34H38V6z"/>
	<path class="st5" d="M64.2,12.6h6.1v3c1.4-1.8,3.2-3.4,6.3-3.4c2.8,0,4.9,1.2,6,3.4c1.9-2.2,4.1-3.4,7-3.4c4.5,0,7.2,2.7,7.2,7.9
		v14h-6.1V22c0-2.9-1.3-4.4-3.6-4.4c-2.3,0-3.7,1.5-3.7,4.4v12h-6.1V22c0-2.9-1.3-4.4-3.6-4.4c-2.3,0-3.7,1.5-3.7,4.4v12h-6.1V12.6z
		"/>
</g>
</svg>
