<?xml version="1.0" encoding="utf-8"?>
<!-- Generator: Adobe Illustrator 19.2.1, SVG Export Plug-In . SVG Version: 6.00 Build 0)  -->
<!DOCTYPE svg PUBLIC "-//W3C//DTD SVG 1.1//EN" "http://www.w3.org/Graphics/SVG/1.1/DTD/svg11.dtd">
<svg version="1.1" id="Layer_1" xmlns="http://www.w3.org/2000/svg" xmlns:xlink="http://www.w3.org/1999/xlink" x="0px" y="0px"
	 viewBox="0 0 174.9 320" style="enable-background:new 0 0 174.9 320;" xml:space="preserve">
<style type="text/css">
	.st0{fill:#FFFFFF;stroke:#1D1D1B;stroke-width:1.27;stroke-miterlimit:10;}
	.st1{fill:none;stroke:#1D1D1B;stroke-width:2.27;stroke-miterlimit:10;}
	.st2{fill:none;stroke:#1D1D1B;stroke-width:6;stroke-miterlimit:10;}
	.st3{fill:#FFFFFF;stroke:#1D1D1B;stroke-width:2.27;stroke-miterlimit:10;}
	.st4{fill:none;stroke:#1D1D1B;stroke-width:1.27;stroke-miterlimit:10;}
	.st5{fill:#1D1D1B;}
	.st6{enable-background:new    ;}
	.st7{fill:#FFFFFF;}
</style>
<title>f7</title>
<rect x="17.4" y="59" class="st0" width="141" height="260.3"/>
<line class="st1" x1="158.4" y1="115.2" x2="17.4" y2="115.2"/>
<line class="st2" x1="158.4" y1="59.4" x2="17.4" y2="59.4"/>
<line class="st1" x1="158.4" y1="166.2" x2="17.4" y2="166.2"/>
<line class="st1" x1="158.4" y1="217.2" x2="17.4" y2="217.2"/>
<line class="st1" x1="158.4" y1="268.2" x2="17.4" y2="268.2"/>
<line class="st1" x1="158.4" y1="318.9" x2="17.4" y2="318.9"/>
<path class="st3" d="M17.5,319.2"/>
<path class="st3" d="M158.4,319.2"/>
<line class="st4" x1="64.1" y1="59.4" x2="64.1" y2="317.9"/>
<line class="st4" x1="112.9" y1="59.4" x2="112.9" y2="317.9"/>
<circle class="st5" cx="112.4" cy="88.2" r="16.5"/>
<circle class="st5" cx="16.5" cy="138.7" r="16.5"/>
<g class="st6">
	<path class="st7" d="M12.6,141.9l3.5-2.9c1.3-1.1,1.8-1.7,1.8-2.5c0-0.9-0.6-1.4-1.4-1.4c-0.8,0-1.4,0.5-2.1,1.4l-1.6-1.3
		c1-1.4,2-2.2,3.9-2.2c2.2,0,3.6,1.3,3.6,3.2v0c0,1.8-0.9,2.6-2.8,4.1l-1.7,1.3h4.6v2h-7.8V141.9z"/>
</g>
<circle class="st5" cx="63.6" cy="191.7" r="16.5"/>
<g class="st6">
	<path class="st7" d="M59.6,195l1.6-1.5c0.7,0.8,1.5,1.3,2.5,1.3c0.9,0,1.5-0.5,1.5-1.3v0c0-0.9-0.8-1.3-2.1-1.3h-1l-0.4-1.5
		l2.5-2.5h-4.1v-2h7.1v1.7l-2.7,2.5c1.4,0.2,2.8,1,2.8,2.9v0c0,2-1.4,3.4-3.8,3.4C61.8,196.8,60.5,196.1,59.6,195z"/>
</g>
<circle class="st5" cx="158.4" cy="191.7" r="16.5"/>
<g class="st6">
	<path class="st7" d="M158.8,194.4h-5.1l-0.4-1.6l5.8-6.7h2v6.4h1.4v1.9h-1.4v2.3h-2.2V194.4z M158.8,192.5v-3.3l-2.8,3.3H158.8z"/>
</g>
<g class="st6">
	<path class="st7" d="M111.1,84.4l-1.8,0.4l-0.5-1.9l3-0.9h1.6v10.6h-2.3V84.4z"/>
</g>
<g class="st6">
	<path class="st5" d="M65.9,6h21.3v5.6H72v6h13.4v5.6H72V34h-6.2V6z"/>
	<path class="st5" d="M104.6,11.3H91.5V6h20.2v4.6L99.1,34h-7L104.6,11.3z"/>
</g>
</svg>
