<?xml version="1.0" encoding="utf-8"?>
<!-- Generator: Adobe Illustrator 19.2.1, SVG Export Plug-In . SVG Version: 6.00 Build 0)  -->
<!DOCTYPE svg PUBLIC "-//W3C//DTD SVG 1.1//EN" "http://www.w3.org/Graphics/SVG/1.1/DTD/svg11.dtd">
<svg version="1.1" id="Layer_1" xmlns="http://www.w3.org/2000/svg" xmlns:xlink="http://www.w3.org/1999/xlink" x="0px" y="0px"
	 viewBox="0 0 173 319.9" style="enable-background:new 0 0 173 319.9;" xml:space="preserve">
<style type="text/css">
	.st0{fill:#FFFFFF;stroke:#1D1D1B;stroke-width:1.27;stroke-miterlimit:10;}
	.st1{fill:none;stroke:#1D1D1B;stroke-width:2.27;stroke-miterlimit:10;}
	.st2{fill:none;stroke:#1D1D1B;stroke-width:1.27;stroke-miterlimit:10;}
	.st3{fill:none;stroke:#1D1D1B;stroke-width:6;stroke-miterlimit:10;}
	.st4{fill:#1D1D1B;}
	.st5{enable-background:new    ;}
	.st6{fill:#FFFFFF;}
</style>
<title>fm</title>
<rect x="16.5" y="59" class="st0" width="141" height="260.3"/>
<line class="st1" x1="157.5" y1="115.2" x2="16.5" y2="115.2"/>
<line class="st1" x1="157.5" y1="166.2" x2="16.5" y2="166.2"/>
<line class="st2" x1="63.1" y1="59.4" x2="63.1" y2="317.9"/>
<line class="st2" x1="112" y1="59.4" x2="112" y2="317.9"/>
<line class="st3" x1="157.5" y1="59.4" x2="16.5" y2="59.4"/>
<line class="st1" x1="157.5" y1="217.2" x2="16.5" y2="217.2"/>
<line class="st1" x1="157.5" y1="268.2" x2="16.5" y2="268.2"/>
<circle class="st4" cx="111.6" cy="88.2" r="16.5"/>
<circle class="st4" cx="16.5" cy="88.2" r="16.5"/>
<g class="st5">
	<path class="st6" d="M107.7,91.4l3.5-2.9c1.3-1.1,1.8-1.7,1.8-2.5c0-0.9-0.6-1.4-1.4-1.4c-0.8,0-1.4,0.5-2.1,1.4l-1.6-1.3
		c1-1.4,2-2.2,3.9-2.2c2.2,0,3.6,1.3,3.6,3.2v0c0,1.8-0.9,2.6-2.8,4.1l-1.7,1.3h4.6v2h-7.8V91.4z"/>
</g>
<circle class="st4" cx="156.6" cy="191.3" r="16.5"/>
<g class="st5">
	<path class="st6" d="M157,194h-5.1l-0.4-1.6l5.8-6.7h2v6.4h1.4v1.9h-1.4v2.3H157V194z M157,192.1v-3.3l-2.8,3.3H157z"/>
</g>
<g class="st5">
	<path class="st6" d="M15.1,84.4l-1.8,0.4L12.8,83l3-0.9h1.6v10.6h-2.3V84.4z"/>
</g>
<g class="st5">
	<path class="st4" d="M55.9,6h21.3v5.6H62.1v6h13.4v5.6H62.1V34h-6.2V6z"/>
	<path class="st4" d="M81.5,12.6h6.1v3c1.4-1.8,3.2-3.4,6.3-3.4c2.8,0,4.9,1.2,6,3.4c1.9-2.2,4.1-3.4,7-3.4c4.5,0,7.2,2.7,7.2,7.9
		v14h-6.1V22c0-2.9-1.3-4.4-3.6-4.4s-3.7,1.5-3.7,4.4v12h-6.1V22c0-2.9-1.3-4.4-3.6-4.4c-2.3,0-3.7,1.5-3.7,4.4v12h-6.1V12.6z"/>
</g>
</svg>
