<svg id="Layer_1" data-name="Layer 1" xmlns="http://www.w3.org/2000/svg" viewBox="0 0 173.95 320.04"><defs><style>.cls-1,.cls-2,.cls-3,.cls-4,.cls-6{fill:#fff;}.cls-1,.cls-2,.cls-3,.cls-4{stroke:#1d1d1b;stroke-miterlimit:10;}.cls-1{stroke-width:1.27px;}.cls-2{stroke-width:2.27px;}.cls-3{stroke-width:6px;}.cls-4{stroke-width:1.27px;}.cls-5,.cls-7{fill:#1d1d1b;}.cls-6{font-size:15px;}.cls-6,.cls-7{font-family:Gotham;font-weight:700;}.cls-7{font-size:40px;}</style></defs><title>fm7</title><rect class="cls-1" x="-904.44" y="-650.06" width="260.29" height="140.99" transform="translate(-492.58 963.4) rotate(90)"/><line class="cls-2" x1="157.48" y1="115.18" x2="16.49" y2="115.18"/><line class="cls-3" x1="157.48" y1="59.37" x2="16.49" y2="59.37"/><line class="cls-2" x1="157.48" y1="166.18" x2="16.49" y2="166.18"/><line class="cls-2" x1="157.48" y1="217.18" x2="16.49" y2="217.18"/><line class="cls-2" x1="157.48" y1="268.18" x2="16.49" y2="268.18"/><line class="cls-2" x1="157.48" y1="318.9" x2="16.49" y2="318.9"/><path class="cls-2" d="M-844.79-449.49" transform="translate(861.28 768.67)"/><path class="cls-2" d="M-703.8-449.49" transform="translate(861.28 768.67)"/><line class="cls-4" x1="63.12" y1="59.37" x2="63.12" y2="317.9"/><line class="cls-4" x1="111.98" y1="59.37" x2="111.98" y2="317.9"/><circle class="cls-5" cx="157.48" cy="89.17" r="16.47"/><text class="cls-6" transform="translate(153.55 93.67)">1</text><circle class="cls-5" cx="112.48" cy="89.17" r="16.47"/><text class="cls-6" transform="translate(108.54 93.67)">1</text><circle class="cls-5" cx="63.47" cy="89.17" r="16.47"/><text class="cls-6" transform="translate(59.54 93.67)">1</text><circle class="cls-5" cx="157.48" cy="191.18" r="16.47"/><text class="cls-6" transform="translate(151.55 195.68)">4</text><circle class="cls-5" cx="63.47" cy="191.18" r="16.47"/><text class="cls-6" transform="translate(58.54 196.68)">3</text><circle class="cls-5" cx="16.47" cy="89.17" r="16.47"/><text class="cls-6" transform="translate(12.53 93.67)">1</text><text class="cls-7" transform="translate(43.55 34)">Fm7</text></svg>